<svg viewBox="0 0 960 886" role="img" aria-label="Base turn: no skills pack, no tool pack" style="max-width:100%;height:auto;color:inherit;font-family:IBM Plex Sans, Helvetica, Arial, sans-serif">
<defs><marker id="ar" viewBox="0 0 10 10" refX="9" refY="5" markerWidth="8" markerHeight="8" orient="auto-start-reverse"><path d="M0 0L10 5L0 10z" fill="currentColor"/></marker></defs>
<g fill="currentColor">
<line x1="60" y1="74" x2="60" y2="876" stroke="currentColor" stroke-dasharray="3 5" opacity=".5"/>
<rect x="-12" y="40" width="144" height="28" rx="3" fill="currentColor" fill-opacity=".06" stroke="currentColor" stroke-width="1"/>
<text x="60" y="56" text-anchor="middle" font-size="12" font-weight='600'>Person</text>
<line x1="228" y1="74" x2="228" y2="876" stroke="currentColor" stroke-dasharray="3 5" opacity=".5"/>
<rect x="156" y="26" width="144" height="42" rx="3" fill="currentColor" fill-opacity=".06" stroke="currentColor" stroke-width="1"/>
<text x="228" y="42" text-anchor="middle" font-size="12" font-weight='600'>Gateway package</text>
<text x="228" y="56" text-anchor="middle" font-size="10.5">observe hooks</text>
<line x1="396" y1="74" x2="396" y2="876" stroke="currentColor" stroke-dasharray="3 5" opacity=".5"/>
<rect x="324" y="26" width="144" height="42" rx="3" fill="currentColor" fill-opacity=".06" stroke="currentColor" stroke-width="1"/>
<text x="396" y="42" text-anchor="middle" font-size="12" font-weight='600'>Kernel</text>
<text x="396" y="56" text-anchor="middle" font-size="10.5">identity · boundary</text>
<line x1="564" y1="74" x2="564" y2="876" stroke="currentColor" stroke-dasharray="3 5" opacity=".5"/>
<rect x="492" y="26" width="144" height="42" rx="3" fill="currentColor" fill-opacity=".06" stroke="currentColor" stroke-width="1"/>
<text x="564" y="42" text-anchor="middle" font-size="12" font-weight='600'>Core</text>
<text x="564" y="56" text-anchor="middle" font-size="10.5">the loop</text>
<line x1="732" y1="74" x2="732" y2="876" stroke="currentColor" stroke-dasharray="3 5" opacity=".5"/>
<rect x="660" y="26" width="144" height="42" rx="3" fill="currentColor" fill-opacity=".06" stroke="currentColor" stroke-width="1"/>
<text x="732" y="42" text-anchor="middle" font-size="12" font-weight='600'>Provider package</text>
<text x="732" y="56" text-anchor="middle" font-size="10.5">deployment scope</text>
<line x1="900" y1="74" x2="900" y2="876" stroke="currentColor" stroke-dasharray="3 5" opacity=".5"/>
<rect x="828" y="40" width="144" height="28" rx="3" fill="currentColor" fill-opacity=".06" stroke="currentColor" stroke-width="1"/>
<text x="900" y="56" text-anchor="middle" font-size="12" font-weight='600'>Model vendor</text>
<text x="144.0" y="94" text-anchor="middle" font-size="12">message</text>
<text x="144.0" y="108" text-anchor="middle" font-size="10.5" font-family="IBM Plex Mono, Menlo, monospace" fill="#0E6C78">the gateway&#x27;s wire protocol</text>
<line x1="60" y1="116" x2="228" y2="116" stroke="currentColor" stroke-width="1.2" marker-end="url(#ar)"/>
<circle cx="72" cy="116" r="8" fill="#0E6C78"/>
<text x="72" y="119.5" text-anchor="middle" font-size="9" fill="#fff" font-weight="600">1</text>
<text x="312.0" y="140" text-anchor="middle" font-size="12">session.submit(identity evidence, text)</text>
<text x="312.0" y="154" text-anchor="middle" font-size="10.5" font-family="IBM Plex Mono, Menlo, monospace" fill="#0E6C78">contract/kernel-socket</text>
<line x1="228" y1="162" x2="396" y2="162" stroke="currentColor" stroke-width="1.2" marker-end="url(#ar)"/>
<circle cx="240" cy="162" r="8" fill="#0E6C78"/>
<text x="240" y="165.5" text-anchor="middle" font-size="9" fill="#fff" font-weight="600">2</text>
<rect x="271.9" y="176" width="248.20000000000005" height="40" fill="#0E6C78" fill-opacity=".08" stroke="#0E6C78" stroke-opacity=".5" stroke-width="1"/>
<text x="396.0" y="192" text-anchor="middle" font-size="11">resolves the person from its bindings;</text>
<text x="396.0" y="206" text-anchor="middle" font-size="11">hands the environment the turn</text>
<text x="480.0" y="236" text-anchor="middle" font-size="12">input</text>
<text x="480.0" y="250" text-anchor="middle" font-size="10.5" font-family="IBM Plex Mono, Menlo, monospace" fill="#0E6C78">contract/turn-events</text>
<line x1="396" y1="258" x2="564" y2="258" stroke="currentColor" stroke-width="1.2" marker-end="url(#ar)"/>
<circle cx="408" cy="258" r="8" fill="#0E6C78"/>
<text x="408" y="261.5" text-anchor="middle" font-size="9" fill="#fff" font-weight="600">3</text>
<path d="M564 278 H604 V306 H570" fill="none" stroke="currentColor" stroke-width="1.2" marker-end="url(#ar)"/>
<text x="612" y="282" text-anchor="start" font-size="12">retrieve (single): no provider → empty</text>
<text x="612" y="296" text-anchor="start" font-size="10.5" font-family="IBM Plex Mono, Menlo, monospace" fill="#0E6C78">contract/turn-events</text>
<path d="M564 322 H604 V338 H570" fill="none" stroke="currentColor" stroke-width="1.2" marker-end="url(#ar)"/>
<text x="612" y="326" text-anchor="start" font-size="12">context: system · skills (empty) · harness · history</text>
<rect x="392.7" y="348" width="342.59999999999997" height="26" fill="#0E6C78" fill-opacity=".08" stroke="#0E6C78" stroke-opacity=".5" stroke-width="1"/>
<text x="564.0" y="364" text-anchor="middle" font-size="11">turn 1: render the prefix once and store it (ADR 0013)</text>
<path d="M564 390 H604 V406 H570" fill="none" stroke="currentColor" stroke-width="1.2" marker-end="url(#ar)"/>
<text x="612" y="394" text-anchor="start" font-size="12">offer (answer): no handlers → empty</text>
<rect x="162.75" y="416" width="466.5" height="40" fill="#0E6C78" fill-opacity=".08" stroke="#0E6C78" stroke-opacity=".5" stroke-width="1"/>
<text x="396.0" y="432" text-anchor="middle" font-size="11">at run start the boundary mounted the provider socket this run may use:</text>
<text x="396.0" y="446" text-anchor="middle" font-size="11">the person&#x27;s instance, else the project&#x27;s, else the deployment&#x27;s (ADR 0019)</text>
<text x="648.0" y="476" text-anchor="middle" font-size="12">begin · message* · end (cache policy)</text>
<text x="648.0" y="490" text-anchor="middle" font-size="10.5" font-family="IBM Plex Mono, Menlo, monospace" fill="#0E6C78">contract/provider · run token on the socket</text>
<line x1="564" y1="498" x2="732" y2="498" stroke="currentColor" stroke-width="1.2" marker-end="url(#ar)"/>
<circle cx="576" cy="498" r="8" fill="#0E6C78"/>
<text x="576" y="501.5" text-anchor="middle" font-size="9" fill="#fff" font-weight="600">4</text>
<text x="816.0" y="522" text-anchor="middle" font-size="12">the vendor&#x27;s request, with the provider&#x27;s own key</text>
<line x1="732" y1="532" x2="900" y2="532" stroke="currentColor" stroke-width="1.2" marker-end="url(#ar)"/>
<circle cx="744" cy="532" r="8" fill="#0E6C78"/>
<text x="744" y="535.5" text-anchor="middle" font-size="9" fill="#fff" font-weight="600">5</text>
<text x="816.0" y="556" text-anchor="middle" font-size="12">the vendor&#x27;s stream</text>
<line x1="900" y1="566" x2="732" y2="566" stroke="currentColor" stroke-width="1.2" stroke-dasharray="5 4" marker-end="url(#ar)"/>
<circle cx="888" cy="566" r="8" fill="#0E6C78"/>
<text x="888" y="569.5" text-anchor="middle" font-size="9" fill="#fff" font-weight="600">6</text>
<text x="648.0" y="590" text-anchor="middle" font-size="12">start · delta.text* · usage { counters } · stop</text>
<text x="648.0" y="604" text-anchor="middle" font-size="10.5" font-family="IBM Plex Mono, Menlo, monospace" fill="#0E6C78">contract/provider</text>
<line x1="732" y1="612" x2="564" y2="612" stroke="currentColor" stroke-width="1.2" stroke-dasharray="5 4" marker-end="url(#ar)"/>
<circle cx="720" cy="612" r="8" fill="#0E6C78"/>
<text x="720" y="615.5" text-anchor="middle" font-size="9" fill="#fff" font-weight="600">7</text>
<text x="564.0" y="636" text-anchor="middle" font-size="12">usage.report(counters, run token)</text>
<text x="564.0" y="650" text-anchor="middle" font-size="10.5" font-family="IBM Plex Mono, Menlo, monospace" fill="#0E6C78">contract/kernel-socket · appended uninterpreted</text>
<line x1="732" y1="658" x2="396" y2="658" stroke="currentColor" stroke-width="1.2" marker-end="url(#ar)"/>
<circle cx="720" cy="658" r="8" fill="#0E6C78"/>
<text x="720" y="661.5" text-anchor="middle" font-size="9" fill="#fff" font-weight="600">8</text>
<text x="396.0" y="682" text-anchor="middle" font-size="12">token*</text>
<text x="396.0" y="696" text-anchor="middle" font-size="10.5" font-family="IBM Plex Mono, Menlo, monospace" fill="#0E6C78">contract/turn-events (observe)</text>
<line x1="564" y1="704" x2="228" y2="704" stroke="currentColor" stroke-width="1.2" stroke-dasharray="5 4" marker-end="url(#ar)"/>
<circle cx="552" cy="704" r="8" fill="#0E6C78"/>
<text x="552" y="707.5" text-anchor="middle" font-size="9" fill="#fff" font-weight="600">9</text>
<text x="144.0" y="728" text-anchor="middle" font-size="12">rendered stream</text>
<line x1="228" y1="738" x2="60" y2="738" stroke="currentColor" stroke-width="1.2" stroke-dasharray="5 4" marker-end="url(#ar)"/>
<circle cx="216" cy="738" r="8" fill="#0E6C78"/>
<text x="216" y="741.5" text-anchor="middle" font-size="9" fill="#fff" font-weight="600">10</text>
<text x="396.0" y="762" text-anchor="middle" font-size="12">output · end (observe)</text>
<line x1="564" y1="772" x2="228" y2="772" stroke="currentColor" stroke-width="1.2" marker-end="url(#ar)"/>
<circle cx="552" cy="772" r="8" fill="#0E6C78"/>
<text x="552" y="775.5" text-anchor="middle" font-size="9" fill="#fff" font-weight="600">11</text>
<text x="480.0" y="796" text-anchor="middle" font-size="12">turn.report (candidate-reported rows)</text>
<text x="480.0" y="810" text-anchor="middle" font-size="10.5" font-family="IBM Plex Mono, Menlo, monospace" fill="#0E6C78">contract/kernel-socket</text>
<line x1="564" y1="818" x2="396" y2="818" stroke="currentColor" stroke-width="1.2" marker-end="url(#ar)"/>
<circle cx="552" cy="818" r="8" fill="#0E6C78"/>
<text x="552" y="821.5" text-anchor="middle" font-size="9" fill="#fff" font-weight="600">12</text>
<text x="144.0" y="842" text-anchor="middle" font-size="12">final message</text>
<line x1="228" y1="852" x2="60" y2="852" stroke="currentColor" stroke-width="1.2" stroke-dasharray="5 4" marker-end="url(#ar)"/>
<circle cx="216" cy="852" r="8" fill="#0E6C78"/>
<text x="216" y="855.5" text-anchor="middle" font-size="9" fill="#fff" font-weight="600">13</text>
</g></svg>